<svg version="1" xmlns="http://www.w3.org/2000/svg" width="400" height="400" viewBox="0 0 300.000000 300.000000"><path d="M46.2 104c-7 1.5-16.2 7.1-20.8 12.7-6.2 7.6-8.6 14.8-9 26.8-1 30.5 15.5 48.3 42.8 46.2 13.1-1 22.8-7.5 28.6-19.1 3.5-6.7 3.5-8.8.1-9.6-8.2-2.2-7.6-2.4-9.2 2.5-4.6 13.3-18.1 19.8-32.5 15.4-11.6-3.4-19-16.8-18.7-33.4.5-20.8 10.6-32.5 28-32.7 10.2-.1 16.7 3.7 21.2 12.5 1.6 3.2 2.9 4.7 3.8 4.3.7-.2 3-.8 4.9-1.2 4.3-.8 4.6-2.5 1.4-8.1-4.5-7.9-10.9-13.2-18.9-15.6-5.2-1.6-15.7-1.9-21.7-.7zM125.5 104.1c-4.3 1.2-9.9 6.2-12.1 10.6-3 6.3-1.6 13.3 4.3 20.9 1.9 2.5 3.3 4.7 3.1 4.8-.2.1-2.6 1.6-5.3 3.4-10 6.2-14.6 13.7-14.1 22.9.8 13.1 11 22.4 25.1 22.9 8.6.3 14.3-1.5 21.1-6.7l5.1-3.9 4.9 4.6c7.1 6.6 7.7 6.8 10.6 3.6 4.2-4.7 4.1-4.8-2.8-11.6l-6.7-6.4 2-2.9c1.6-2.2 6.3-13.3 6.3-14.7 0-.2-1.7-.7-3.7-1-2.1-.4-4.5-.9-5.5-1.2-1.2-.4-2 .7-3.3 4.6-.9 2.7-2 5.2-2.3 5.4-.4.2-4-3.6-8-8.6-4-4.9-7.2-9.1-7-9.2 3.6-2.2 10.1-7.9 12.1-10.6 10.6-14.7-5-32.4-23.8-26.9zm13.9 11c4.9 5.8 2.7 13-5.5 18.3-2.5 1.6-2.6 1.5-5.9-2.1-4.1-4.5-6.1-9.8-4.9-13.1 1.7-4.5 4.2-6 10.1-6.1 2.9-.1 4.2.5 6.2 3zm-1.2 45.7c7.7 9.3 7.8 9.4 6 11.7-2.4 3.3-9.1 7.2-13.5 8-10.5 2-20.8-9.5-17.6-19.5 1.5-4.4 2.3-5.5 8.3-10.2l4.9-3.9 2.1 2.3c1.2 1.3 5.6 6.5 9.8 11.6zM177 104.5c0 .3.9 3.8 2.1 7.8 1.1 3.9 2.2 8.1 2.4 9.2.4 1.9 3.1 11.9 13.2 49.7l4.8 17.8h11.4l1.2-4.3c.6-2.3 1.2-4.7 1.4-5.2.1-.6.5-1.7.8-2.5.3-.8 4.3-15.1 8.9-31.7l8.3-30.3 1.7 5.8c1 3.1 2 6.6 2.2 7.7.2 1.1 1 4 1.7 6.5s1.3 4.8 1.5 5.2c.1.5.2.9.4 1 .1.2.3 1.1.5 2.1.4 2 6.8 25.5 9 32.7.7 2.5 1.8 6.4 2.5 8.7l1.1 4.3h5.4c4.2 0 5.5-.4 5.9-1.8.3-.9 4.8-17.2 10-36.2 5.2-19 10-36.5 10.7-39 2.3-8.4 2.5-8-3.5-8-4.3 0-5.6.4-6 1.7-1.5 5.3-15.9 65.2-16.2 67.1-.4 3.6-1.1 3.6-1.8 0-.3-1.8-.8-4.4-1.1-5.8-.3-1.4-.7-3.6-1-5-.7-3.6-3.4-13.7-10.1-37.2l-5.9-20.8h-13.3l-1.2 3.4c-.6 1.8-1.2 4.3-1.5 5.5-.2 1.2-.9 3.6-1.5 5.4-2 6.3-12.8 45.3-14.1 51-1.3 6.1-2.6 6.3-3.4.6-.7-4.4-1-5.9-1.8-8.4-.3-1.1-.9-3.1-1.1-4.5-1.4-6.6-2.9-13.1-7.3-32l-4.8-20.5-5.8-.3c-3.1-.2-5.7 0-5.7.3z"/></svg>